Coordinates
version=1
nRows=14
nColumns=42
inDegrees=yes

Units are S.I. units (second, meters, Newtons, ...)
If the header above contains a line with 'inDegrees', this indicates whether rotational values are in degrees (yes) or radians (no).

endheader
time	pelvis_tilt	pelvis_list	pelvis_rotation	pelvis_tx	pelvis_ty	pelvis_tz	hip_flexion_r	hip_adduction_r	hip_rotation_r	knee_angle_r	knee_adduction_r	knee_angle_r_beta	ankle_angle_r	subtalar_angle_r	mtp_angle_r	hip_flexion_l	hip_adduction_l	hip_rotation_l	knee_angle_l	knee_adduction_l	knee_angle_l_beta	ankle_angle_l	subtalar_angle_l	mtp_angle_l	lumbar_extension	lumbar_bending	lumbar_rotation	arm_flex_r	arm_add_r	arm_rot_r	elbow_flex_r	pro_sup_r	wrist_flex_r	wrist_dev_r	arm_flex_l	arm_add_l	arm_rot_l	elbow_flex_l	pro_sup_l	wrist_flex_l	wrist_dev_l
      6.50000000	      1.75882494	    -10.97931204	    -12.73631848	     -0.30474342	      0.84129311	      0.28192757	     -1.50628039	      7.22862241	    -21.40509954	     21.97772087	     -4.45906375	      0.38358359	     16.79894427	     26.26498921	     -7.50003976	     17.82720947	    -18.13667016	    -24.31777130	     36.18186737	     -7.11262847	      0.63149272	     14.99435860	     20.95935482	     -7.50003976	    -28.36542630	      8.30099901	      3.56237887	     -8.65607516	     -1.83891204	    -11.73940433	    105.53204399	     90.00000001	      0.00000000	      0.00000000	      2.46270553	     -8.67333982	    -16.98084895	     49.47349018	     90.00000001	      0.00000000	      0.00000000
      6.51000000	      2.11004757	    -10.87720726	    -13.54361869	     -0.30210811	      0.84380663	      0.28047571	     -1.88447867	      6.88475684	    -20.50934997	     22.14126390	     -4.49576952	      0.38643796	     15.40435430	     24.81683947	     -7.50003812	     16.32050509	    -17.92885699	    -26.07792470	     35.03903695	     -7.20921567	      0.61154656	     14.76996789	     22.35790310	     -7.50003812	    -28.81471535	      7.84838086	      4.06603937	     -8.70478319	     -1.89149765	    -11.49622833	    105.82901333	     90.00000001	      0.00000000	      0.00000000	      2.56285854	     -8.71952417	    -17.02826434	     49.57191276	     90.00000001	      0.00000000	      0.00000000
      6.52000000	      1.90009016	    -10.99586997	    -13.97168632	     -0.29981677	      0.84529483	      0.27874941	     -1.56285440	      6.93499218	    -20.50009373	     22.47011546	     -4.75599224	      0.39217750	     14.67950687	     24.55975028	     -7.50003771	     15.77845966	    -18.02870433	    -26.60479271	     34.35190901	     -6.89741789	      0.59955392	     14.80380993	     22.60164070	     -7.50003771	    -28.68415191	      7.93759848	      4.27775403	     -8.76854118	     -1.91850274	    -11.28491531	    106.11952738	     90.00000001	      0.00000000	      0.00000000	      2.58227666	     -8.77556789	    -17.04692047	     49.66903600	     90.00000001	      0.00000000	      0.00000000
      6.53000000	      1.68207142	    -11.11954763	    -14.30641871	     -0.29735051	      0.84668001	      0.27697017	     -1.32270634	      6.94777079	    -20.51060193	     22.67421154	     -4.83756152	      0.39573965	     14.18767831	     24.36634029	     -7.50003750	     15.29821933	    -18.12418744	    -27.17625913	     33.71068813	     -6.64331578	      0.58836250	     14.80082365	     22.75921346	     -7.50003750	    -28.49431574	      8.09744914	      4.29465474	     -8.76383375	     -1.81909211	    -11.16552824	    106.39327205	     90.00000001	      0.00000000	      0.00000000	      2.45632815	     -8.88938301	    -17.08391619	     49.68387618	     90.00000001	      0.00000000	      0.00000000
      6.54000000	      2.00988864	    -11.00405755	    -15.02994541	     -0.29484288	      0.84892855	      0.27544967	     -1.57957031	      6.57257739	    -19.56879194	     22.96627892	     -4.86110317	      0.40083718	     12.94223613	     23.15480322	     -7.50003590	     13.93894472	    -17.89670604	    -29.29108308	     32.62857436	     -6.83557689	      0.56947605	     14.50403442	     24.97659895	     -7.50003590	    -28.89738557	      7.67805478	      4.76645808	     -8.82119075	     -1.87779170	    -10.99745708	    106.64506738	     90.00000001	      0.00000000	      0.00000000	      2.57264743	     -8.93897994	    -17.11589554	     49.88237623	     90.00000001	      0.00000000	      0.00000000
      6.55000000	      1.78929118	    -11.14921865	    -15.10386807	     -0.29246693	      0.85008555	      0.27340226	     -1.32333337	      6.67854091	    -19.53119297	     23.16707358	     -4.97006519	      0.40434171	     12.67907091	     23.06901643	     -7.50003576	     13.66167598	    -17.98698047	    -29.63910624	     32.18164612	     -6.53807858	      0.56167568	     14.54871300	     25.00044412	     -7.50003576	    -28.69635762	      7.96732852	      4.64546213	     -8.82500939	     -1.80011463	    -10.94242212	    106.82866337	     90.00000001	      0.00000000	      0.00000000	      2.55820489	     -9.03955561	    -17.13029720	     49.93192247	     90.00000001	      0.00000000	      0.00000000
      6.56000000	      1.91425146	    -11.07612852	    -15.85256142	     -0.29010802	      0.85181825	      0.27204087	     -1.23109797	      6.41486646	    -18.76032802	     23.67991634	     -5.14503182	      0.41329251	     11.42425248	     22.09195411	     -7.50003459	     12.53326329	    -17.76864703	    -31.16761071	     31.13105246	     -6.51201624	      0.54333937	     14.26068476	     26.32376298	     -7.50003459	    -28.86563007	      7.65252190	      5.14130711	     -8.87021167	     -1.85072572	    -10.79319268	    107.07993955	     90.00000001	      0.00000000	      0.00000000	      2.55186746	     -9.10142642	    -17.15595146	     50.17263308	     90.00000001	      0.00000000	      0.00000000
      6.57000000	      1.90125604	    -11.11331060	    -16.20865899	     -0.28779500	      0.85313195	      0.27035331	     -1.09508013	      6.35903556	    -18.16695363	     24.03530534	     -5.24747011	      0.41949521	     10.74367664	     21.29673654	     -7.50003353	     11.87049902	    -17.69581657	    -32.04455963	     30.46836522	     -6.32874381	      0.53177329	     14.16382011	     27.10567599	     -7.50003353	    -28.88948477	      7.64536858	      5.30393769	     -8.85649614	     -1.82296153	    -10.73342224	    107.26071858	     90.00000001	      0.00000000	      0.00000000	      2.57262873	     -9.19845695	    -17.16451135	     50.35271237	     90.00000001	      0.00000000	      0.00000000
      6.58000000	      1.80779127	    -11.21198817	    -16.43951699	     -0.28536461	      0.85414381	      0.26863077	     -0.84695650	      6.46630733	    -17.87784104	     24.42912456	     -5.60408890	      0.42636866	     10.30860121	     20.97109608	     -7.50003318	     11.34559203	    -17.64139679	    -32.38106785	     29.87273865	     -6.02529099	      0.52137765	     14.16195223	     27.30612130	     -7.50003318	    -28.78192705	      7.79253143	      5.40841237	     -8.90486686	     -1.81195115	    -10.69296507	    107.36515124	     90.00000001	      0.00000000	      0.00000000	      2.53465923	     -9.29629903	    -17.18936821	     50.47733020	     90.00000001	      0.00000000	      0.00000000
      6.59000000	      1.76639119	    -11.29251140	    -16.53671921	     -0.28285545	      0.85505012	      0.26679314	     -0.68293851	      6.50528839	    -17.53029185	     24.79609361	     -5.79893298	      0.43277348	      9.95224651	     20.72644272	     -7.50003299	     10.91152289	    -17.55212730	    -32.70975554	     29.44835745	     -5.83971574	      0.51397080	     14.14065986	     27.39246038	     -7.50003299	    -28.69579662	      7.95636858	      5.32451028	     -8.90823206	     -1.73631600	    -10.71053066	    107.44991296	     90.00000001	      0.00000000	      0.00000000	      2.46845962	     -9.42396642	    -17.21383687	     50.55586519	     90.00000001	      0.00000000	      0.00000000
      6.60000000	      2.03542842	    -11.11491000	    -17.03393034	     -0.28037686	      0.85640257	      0.26516704	     -0.78672737	      6.17025354	    -16.01744402	     25.28296964	     -5.67335347	      0.44127106	      9.11382075	     18.33790843	     -7.50003152	      9.88315665	    -17.05466357	    -33.81664326	     28.60056970	     -5.71515864	      0.49917411	     13.74073425	     28.22287164	     -7.50003152	    -28.91310653	      7.61080813	      5.68664215	     -8.96794705	     -1.73276435	    -10.73495725	    107.40034527	     90.00000001	      0.00000000	      0.00000000	      2.50436842	     -9.46560025	    -17.14795252	     50.90342689	     90.00000001	      0.00000000	      0.00000000
      6.61000000	      2.00985032	    -11.24591977	    -17.07302575	     -0.27797266	      0.85705172	      0.26340271	     -0.59468353	      6.33721924	    -15.61255268	     25.75158481	     -5.98753230	      0.44944994	      8.78086524	     18.11254045	     -7.50003128	      9.52191466	    -16.98845806	    -33.89024492	     28.28660544	     -5.53737997	      0.49369440	     13.82686859	     28.21337041	     -7.50003128	    -28.85527637	      7.84274140	      5.60576135	     -8.91636364	     -1.66212206	    -10.78935359	    107.42243693	     90.00000001	      0.00000000	      0.00000000	      2.46346458	     -9.66385159	    -17.19098427	     50.97788354	     90.00000001	      0.00000000	      0.00000000
      6.62000000	      2.15317232	    -11.14543852	    -17.37585045	     -0.27558899	      0.85793021	      0.26181241	     -0.53632975	      6.20250107	    -14.14291541	     26.32799265	     -5.89805709	      0.45951016	      8.09144916	     15.67826139	     -7.50002975	      8.82263203	    -16.58328099	    -34.32887936	     27.70316706	     -5.34306462	      0.48351148	     13.65482455	     28.17187701	     -7.50002975	    -28.91828035	      7.66763655	      5.77635455	     -8.95529594	     -1.63606213	    -10.90009144	    107.30038190	     90.00000001	      0.00000000	      0.00000000	      2.46063909	     -9.77237524	    -17.14503696	     51.25356902	     90.00000001	      0.00000000	      0.00000000
      6.63000000	      2.18579428	    -11.22848156	    -17.20190717	     -0.27285296	      0.85832074	      0.25983621	     -0.49185280	      6.30867521	    -13.80966899	     26.64932924	     -6.14652108	      0.46511854	      7.94703665	     15.62909339	     -7.50002965	      8.60743296	    -16.45178152	    -34.30970141	     27.65332424	     -5.25649276	      0.48264156	     13.68340134	     28.12591082	     -7.50002965	    -28.81497674	      7.93309670	      5.61189953	     -9.10996556	     -1.62278251	    -10.96143441	    107.21519111	     90.00000001	      0.00000000	      0.00000000	      2.48202569	     -9.87022288	    -17.15968117	     51.30505809	     90.00000001	      0.00000000	      0.00000000
